<svg width="10" height="10" viewBox="0 0 10 10" fill="none" xmlns="http://www.w3.org/2000/svg">
<path id="Vector" d="M5 10C5.6875 10 6.25 9.53846 6.25 8.97436H3.75C3.75 9.53846 4.3125 10 5 10ZM8.75 6.92308V4.35897C8.75 2.78462 7.73125 1.46667 5.9375 1.11795V0.769231C5.9375 0.34359 5.51875 0 5 0C4.48125 0 4.0625 0.34359 4.0625 0.769231V1.11795C2.275 1.46667 1.25 2.77949 1.25 4.35897V6.92308L0 7.94872V8.46154H10V7.94872L8.75 6.92308ZM7.5 7.4359H2.5V4.35897C2.5 3.08718 3.44375 2.05128 5 2.05128C6.55625 2.05128 7.5 3.08718 7.5 4.35897V7.4359Z" fill="#434343"/>
</svg>
