<svg width="60" height="60" viewBox="0 0 60 60" fill="none" xmlns="http://www.w3.org/2000/svg">
<circle cx="30" cy="30" r="30" fill="#FAFAFA"/>
<path d="M27 23.25C27 28.0825 30.9175 32 35.75 32C38.198 32 40.4112 30.9946 41.9994 29.3744C42 29.4163 42 29.4581 42 29.5C42 36.4035 36.4035 42 29.5 42C22.5964 42 17 36.4035 17 29.5C17 22.5964 22.5964 17 29.5 17C29.5419 17 29.5838 17 29.6256 17.0006C28.0054 18.5887 27 20.802 27 23.25ZM19.5 29.5C19.5 35.0229 23.9771 39.5 29.5 39.5C33.3229 39.5 36.6447 37.3549 38.3275 34.2026C37.4931 34.3984 36.6294 34.5 35.75 34.5C29.5367 34.5 24.5 29.4633 24.5 23.25C24.5 22.3706 24.6017 21.5068 24.7974 20.6725C21.6451 22.3553 19.5 25.6771 19.5 29.5Z" fill="black"/>
</svg>
