<svg width="6" height="6" viewBox="0 0 6 6" fill="none" xmlns="http://www.w3.org/2000/svg">
<path id="Vector" d="M4.28817 3.77359H4.01715L3.9211 3.68096C4.25729 3.28988 4.45969 2.78216 4.45969 2.22985C4.45969 0.998285 3.46141 0 2.22985 0C0.998285 0 0 0.998285 0 2.22985C0 3.46141 0.998285 4.45969 2.22985 4.45969C2.78216 4.45969 3.28988 4.25729 3.68096 3.9211L3.77359 4.01715V4.28817L5.48885 6L6 5.48885L4.28817 3.77359ZM2.22985 3.77359C1.37564 3.77359 0.686106 3.08405 0.686106 2.22985C0.686106 1.37564 1.37564 0.686106 2.22985 0.686106C3.08405 0.686106 3.77359 1.37564 3.77359 2.22985C3.77359 3.08405 3.08405 3.77359 2.22985 3.77359Z" fill="#6E6E6E"/>
</svg>
