<svg width="60" height="60" viewBox="0 0 60 60" fill="none" xmlns="http://www.w3.org/2000/svg">
<circle cx="30" cy="30" r="30" fill="#252525"/>
<path d="M29.5 35.75C26.0482 35.75 23.25 32.9518 23.25 29.5C23.25 26.0482 26.0482 23.25 29.5 23.25C32.9518 23.25 35.75 26.0482 35.75 29.5C35.75 32.9518 32.9518 35.75 29.5 35.75ZM29.5 33.6667C31.8012 33.6667 33.6667 31.8011 33.6667 29.5C33.6667 27.1988 31.8012 25.3333 29.5 25.3333C27.1988 25.3333 25.3334 27.1988 25.3334 29.5C25.3334 31.8011 27.1988 33.6667 29.5 33.6667ZM28.4584 18.0417H30.5417V21.1667H28.4584V18.0417ZM28.4584 37.8333H30.5417V40.9583H28.4584V37.8333ZM20.6612 22.1343L22.1343 20.6612L24.344 22.8709L22.8709 24.344L20.6612 22.1343ZM34.656 36.1292L36.1292 34.6559L38.3389 36.8657L36.8657 38.3388L34.656 36.1292ZM36.8657 20.6612L38.3389 22.1343L36.1292 24.344L34.656 22.8709L36.8657 20.6612ZM22.8709 34.6559L24.344 36.1292L22.1343 38.3388L20.6612 36.8657L22.8709 34.6559ZM40.9584 28.4583V30.5417H37.8334V28.4583H40.9584ZM21.1667 28.4583V30.5417H18.0417V28.4583H21.1667Z" fill="#FAFAFA"/>
</svg>
